<?xml version="1.0" encoding="utf-8"?>
<!-- Generator: Adobe Illustrator 16.0.2, SVG Export Plug-In . SVG Version: 6.00 Build 0)  -->
<!DOCTYPE svg PUBLIC "-//W3C//DTD SVG 1.1//EN" "http://www.w3.org/Graphics/SVG/1.1/DTD/svg11.dtd">
<svg version="1.1" id="Layer_1" xmlns="http://www.w3.org/2000/svg" xmlns:xlink="http://www.w3.org/1999/xlink" x="0px" y="0px"
	 width="185.714px" height="193.221px" viewBox="0 0 185.714 193.221" enable-background="new 0 0 185.714 193.221"
	 xml:space="preserve">
<g>
	<g>
		<polyline opacity="0.6" fill="#47B3C8" enable-background="new    " points="96.019,21.693 100.72,21.693 100.72,11.81 
			95.978,21.693 		"/>
		<polyline opacity="0.6" fill="#0B858F" enable-background="new    " points="96.023,16.751 100.726,19.331 96.014,29.213 
			95.972,16.751 100.714,19.354 		"/>
		<polyline opacity="0.6" fill="#47B3C8" enable-background="new    " points="32.431,46.843 41.869,46.843 47.19,55.125 
			32.431,46.843 		"/>
		<polyline opacity="0.6" fill="#0B858F" enable-background="new    " points="127.84,156.13 143.634,147.248 137.941,156.13 
			127.84,156.13 		"/>
		<polyline opacity="0.6" fill="#47B3C8" enable-background="new    " points="131.234,149.634 131.234,159.854 149.707,149.634 
			131.234,149.634 		"/>
		<polyline opacity="0.6" fill="#1B94A0" enable-background="new    " points="88.759,169.791 92.74,174.414 92.74,163.32 
			88.75,169.791 		"/>
		<polyline opacity="0.6" fill="#20A2B7" enable-background="new    " points="86.297,168.867 95.192,169.007 95.183,182.082 
			86.297,168.867 		"/>
		<polyline opacity="0.6" fill="#20A2B7" enable-background="new    " points="170.29,93.549 161.446,93.047 171.163,102.813 
			170.29,93.549 		"/>
		<polyline opacity="0.6" fill="#1FA4BC" enable-background="new    " points="162.878,98.929 171.021,90.86 157.132,90.811 
			162.878,98.929 		"/>
		<polyline opacity="0.6" fill="#1FA4BC" enable-background="new    " points="138.909,49.575 144.265,44.267 135.127,44.235 
			138.909,49.575 		"/>
		<polyline opacity="0.6" fill="#20A2B7" enable-background="new    " points="29.927,89.403 29.927,103.506 18.988,99.07 
			29.927,89.403 		"/>
		<polyline opacity="0.6" fill="#E3EBEB" enable-background="new    " points="24.457,104.22 35.356,94.555 24.457,94.555 
			24.457,104.22 		"/>
		<polyline fill="#20A2B7" points="54.66,148.193 40.837,148.179 46.988,157.402 54.575,148.179 		"/>
		<polyline fill="#0B858F" points="43.199,145.377 49.349,154.479 43.199,156.012 43.199,145.377 		"/>
		<polyline opacity="0.6" fill="#1B94A0" enable-background="new    " points="132.958,40.536 146.434,48.211 132.958,48.211 
			132.958,40.536 		"/>
		<polyline opacity="0.6" fill="#47B3C8" enable-background="new    " points="26.244,54.136 42.184,54.136 42.184,43.47 
			26.244,54.136 		"/>
	</g>
	<g>
		<path fill="#E3EBEB" d="M98.16,53.77c0,0,4.449,0.213,4.545-0.029c0.098-0.243,0.038-6.363,0.038-6.363L98.16,53.79"/>
		<polyline fill="#20A2B7" points="98.059,47.296 98.16,53.77 102.802,47.296 98.059,47.296 		"/>
		<polyline fill="#47B3C8" points="98.102,47.296 102.802,47.296 102.802,37.413 98.059,47.296 		"/>
		<polyline fill="#0B858F" points="98.11,34.834 102.813,37.413 98.102,47.296 98.059,34.834 102.802,37.436 		"/>
		<polyline fill="#E3EBEB" points="102.802,37.413 112.115,42.533 113.797,53.77 102.813,37.43 		"/>
		<polyline fill="#0B858F" points="113.797,53.77 112.115,42.533 132.495,53.77 113.797,53.77 102.813,53.742 113.797,53.77 
			102.802,37.413 102.705,53.742 		"/>
		<polyline fill="#1FA4BC" points="143.033,106.423 154.115,100.154 154.142,127.248 143.124,106.423 		"/>
		<polyline fill="#E3EBEB" points="143.033,100.154 154.142,94.725 154.115,100.154 143.033,100.154 		"/>
		<polyline fill="#47B3C8" points="143.033,100.154 154.115,100.154 143.033,106.423 143.062,100.283 		"/>
		<polyline fill="#E3EBEB" points="154.142,127.248 143.033,106.423 143.033,122.539 154.142,127.359 		"/>
		<polyline fill="#20A2B7" points="154.115,94.791 143.033,100.154 143.033,94.725 154.115,94.791 		"/>
		<polyline fill="#0B858F" points="154.115,75.341 154.127,94.725 143.033,81.674 154.115,75.341 		"/>
		<polyline fill="#1FA4BC" points="143.033,81.674 154.115,75.341 143.033,70.176 143.06,81.674 		"/>
		<polyline fill="#E3EBEB" points="154.115,94.725 143.033,81.674 143.033,94.725 		"/>
		<polyline fill="#1B94A0" points="143.033,70.176 154.115,75.341 154.115,65.615 		"/>
		<polyline fill="#20A2B7" points="143.033,70.176 154.115,65.615 132.495,53.77 143.033,70.176 		"/>
		<polyline fill="#47B3C8" points="113.797,53.77 132.495,53.77 143.033,70.176 113.797,53.77 		"/>
		<polyline fill="#47B3C8" points="102.813,53.742 113.797,53.77 102.813,62.072 102.813,53.742 		"/>
		<polyline fill="#20A2B7" points="113.797,53.77 113.797,62.079 102.802,62.079 113.797,53.77 		"/>
		<polyline fill="#47B3C8" points="113.797,130.675 102.802,122.539 102.813,139.168 		"/>
		<polyline fill="#0B858F" points="113.797,138.984 143.033,122.539 132.495,138.984 113.797,138.984 		"/>
		<polyline fill="#1B94A0" points="113.797,130.675 102.813,139.168 113.797,138.984 113.797,130.675 		"/>
		<polyline fill="#47B3C8" points="98.458,139.168 98.458,158.088 132.656,139.168 98.458,139.168 		"/>
		<polyline fill="#1B94A0" points="143.033,122.539 154.142,127.248 132.495,139.168 142.833,122.539 		"/>
		<polygon fill="#20A2B7" points="42.077,65.66 64.165,53.499 74.627,74.824 		"/>
		<line fill="none" x1="102.802" y1="47.636" x2="100.669" y2="47.636"/>
		<polyline fill="#1B94A0" points="96.545,153.941 98.11,154.256 96.589,157.007 96.545,153.941 		"/>
		<polyline fill="#0B858F" points="96.545,153.941 96.589,157.007 93.621,155.385 96.545,153.941 		"/>
		<polyline fill="#20A2B7" points="98.096,154.256 96.545,153.941 98.458,152.996 98.096,154.268 		"/>
		<polyline fill="#1B94A0" points="98.102,154.256 98.458,152.996 98.458,154.693 98.096,154.256 		"/>
		<polyline fill="#20A2B7" points="98.11,158.074 98.458,157.908 98.458,154.693 98.11,158.074 		"/>
		<polyline fill="#47B3C8" points="98.102,154.256 98.458,154.693 98.11,158.076 98.102,154.256 		"/>
		<polyline fill="#E3EBEB" points="98.11,158.076 96.491,157.185 98.102,154.256 98.11,158.076 		"/>
		<polyline fill="#47B3C8" points="98.458,152.996 93.449,155.468 93.497,147.23 98.458,152.984 		"/>
		<polyline fill="#1B94A0" points="93.497,147.23 98.458,152.996 98.458,139.168 93.484,147.23 		"/>
		<polyline fill="#E3EBEB" points="93.507,139.168 98.458,139.168 93.497,147.23 93.507,139.168 		"/>
		<polyline fill="#20A2B7" points="82.42,138.996 93.507,139.168 93.497,155.468 82.42,138.996 		"/>
		<polyline fill="#1B94A0" points="82.42,138.996 93.497,155.539 63.395,138.996 82.42,138.996 		"/>
		<polyline fill="#0B858F" points="63.707,139.168 82.42,138.996 53.187,122.591 63.395,138.996 		"/>
		<polyline fill="#20A2B7" points="53.187,122.591 63.707,139.168 42.105,127.293 53.187,122.591 		"/>
		<polyline fill="#20A2B7" points="92.625,54 83.78,53.499 93.497,63.264 92.625,54 		"/>
		<polyline fill="#0B858F" points="92.625,54 83.78,53.499 93.354,53.499 92.625,54 		"/>
		<polyline fill="#47B3C8" points="83.78,53.499 93.497,63.241 81.009,59.103 83.78,53.499 		"/>
		<polyline fill="#47B3C8" points="87.971,45.017 83.78,53.499 93.355,53.499 87.971,45.017 		"/>
		<polyline fill="#0B858F" points="87.971,45.017 93.507,53.742 93.482,40.383 87.971,45.017 		"/>
		<polyline fill="#1EA3BC" points="93.482,40.392 87.971,45.017 90.912,38.936 93.482,40.392 		"/>
		<polyline fill="#1B94A0" points="90.977,38.936 81.009,59.103 64.165,53.499 90.912,38.936 		"/>
		<polyline fill="#196264" points="93.497,43.031 93.497,40.392 98.059,43.031 93.482,43.031 93.497,40.392 		"/>
		<polyline fill="#1FA4BC" points="98.059,43.031 98.059,35.083 90.977,38.936 98.059,43.031 		"/>
		<polyline fill="#1FA4BC" points="93.497,43.031 98.102,47.636 98.059,43.031 93.497,43.031 98.11,47.636 98.059,53.742 		"/>
		<path fill="#47B3C8" d="M93.507,63.257C93.497,63.241,92.625,54,92.625,54l0.883-0.259l0.001,9.523"/>
		<polyline fill="#E3EBEB" points="93.354,53.499 92.625,54 93.507,53.742 93.361,53.499 		"/>
		<polyline fill="#20A2B7" points="98.059,53.742 93.507,53.742 93.507,43.031 98.059,53.742 		"/>
		<polyline fill="#0B858F" points="64.165,53.499 93.497,63.257 74.627,74.824 64.165,53.499 		"/>
		<polyline fill="#1FA4BC" points="74.627,74.824 93.507,63.257 93.497,82.65 74.627,74.824 		"/>
		<polyline fill="#0B858F" points="93.497,86.649 93.507,94.725 85.356,94.725 93.497,86.642 		"/>
		<polyline fill="#1FA4BC" points="85.356,94.718 93.497,86.649 79.609,86.599 85.356,94.718 		"/>
		<polyline fill="#20A2B7" points="82.641,82.624 93.507,82.624 93.497,86.599 82.641,82.632 		"/>
		<polyline fill="#47B3C8" points="79.583,86.634 93.497,86.634 82.641,82.624 79.583,86.698 		"/>
		<polyline fill="#47B3C8" points="85.356,94.694 73.369,94.725 79.583,86.634 85.356,94.694 		"/>
		<polyline fill="#1FA4BC" points="73.369,94.725 79.134,87.217 82.641,82.65 65.368,82.65 73.369,94.725 		"/>
		<polyline fill="#E3EBEB" points="65.368,82.624 93.497,82.624 74.627,74.824 65.368,82.65 		"/>
		<polyline fill="#20A2B7" points="56.948,69.847 65.368,82.624 74.627,74.824 56.942,69.845 		"/>
		<polyline fill="#47B3C8" points="56.942,69.881 73.53,94.969 53.187,94.969 56.942,69.881 		"/>
		<polyline fill="#20A2B7" points="53.187,94.969 53.187,109.072 42.245,104.634 53.187,94.969 		"/>
		<polyline fill="#E3EBEB" points="42.286,104.634 53.187,94.969 42.286,94.969 42.286,104.634 		"/>
		<polyline fill="#E3EBEB" points="42.286,104.634 53.187,109.072 46.955,118.131 42.286,104.634 		"/>
		<polyline fill="#0B858F" points="46.962,118.131 53.187,109.072 53.187,122.591 46.955,118.131 		"/>
		<polyline fill="#1FA4BC" points="42.077,114.627 42.077,104.031 46.962,118.131 42.077,114.822 		"/>
		<polyline fill="#47B3C8" points="53.187,122.591 42.105,127.293 42.077,114.627 47.631,118.609 53.187,122.591 		"/>
		<polyline fill="#20A2B7" points="42.077,65.66 42.077,94.969 53.187,94.969 42.077,65.66 		"/>
		<polyline fill="#1FA4BC" points="42.077,65.66 56.942,69.845 53.187,94.969 42.079,66.035 		"/>
		<polyline fill="#20A2B7" points="93.433,94.725 61.937,94.694 75.948,115.709 93.24,94.694 		"/>
		<polyline fill="#E3EBEB" points="93.433,94.725 75.948,115.709 93.497,111.332 93.433,94.725 		"/>
		<polyline fill="#0B858F" points="61.937,94.969 75.948,115.709 61.937,119.203 61.937,94.969 		"/>
		<polyline fill="#20A2B7" points="61.937,119.203 93.24,111.398 82.42,130.688 		"/>
		<polyline fill="#47B3C8" points="93.507,139.168 93.497,111.398 82.42,130.688 93.507,139.168 		"/>
		<polyline fill="#20A2B7" points="82.42,130.688 93.507,139.168 82.42,138.996 82.42,130.688 		"/>
		<polyline fill="#20A2B7" points="134.282,94.597 134.282,119.189 113.797,107.521 134.282,94.597 134.282,119.189 		"/>
		<polyline fill="#E3EBEB" points="113.797,107.521 134.282,94.725 102.673,94.969 113.797,107.521 		"/>
		<polyline fill="#1B94A0" points="113.797,107.521 134.282,119.189 113.797,119.189 113.797,107.521 		"/>
		<polyline fill="#47B3C8" points="134.282,119.189 113.797,119.189 113.797,130.675 134.282,119.189 		"/>
		<polyline fill="#47B3C8" points="102.705,94.969 113.797,107.521 102.813,122.621 102.705,94.969 		"/>
		<polyline fill="#0B858F" points="102.705,122.539 113.797,107.521 113.797,130.675 102.705,122.539 		"/>
		<polyline fill="#47B3C8" points="102.705,94.694 134.282,94.694 134.282,73.564 102.705,94.694 		"/>
		<polyline fill="#0B858F" points="134.282,73.564 102.705,94.725 109.915,73.564 134.282,73.564 		"/>
		<polyline fill="#1B94A0" points="102.705,61.973 113.797,62.079 102.802,94.597 102.705,61.973 		"/>
		<polyline fill="#E3EBEB" points="134.282,73.564 109.915,73.564 113.797,62.079 134.282,73.564 		"/>
		<polygon fill="none" stroke="#2CA9B9" stroke-width="5" stroke-miterlimit="10" points="42.105,127.293 42.077,65.66 
			98.083,34.821 154.115,65.615 154.142,127.248 98.134,158.088 		"/>
	</g>
</g>
</svg>
